<svg xmlns="http://www.w3.org/2000/svg" viewBox="0 0 512 512" width="192" height="192">
  <rect width="512" height="512" rx="108" fill="#09090b"/>
  <rect x="16" y="16" width="480" height="480" rx="92" fill="none" stroke="#27272a" stroke-width="4"/>
  <g transform="translate(106, 106) scale(0.585)" stroke="#f59e0b" stroke-width="32" stroke-linecap="round" stroke-linejoin="round" fill="none">
    <path d="m6.5 6.5 192 192"/>
    <path d="m21.5 61.5 40-40"/>
    <path d="m143.5 183.5 40-40"/>
    <path d="m41.5 81.5 40-40"/>
    <path d="m123.5 163.5 40-40"/>
    <path d="m61.5 101.5 40-40"/>
    <path d="m103.5 143.5 40-40"/>
    <path d="m71.5 131.5 60-60"/>
    <path d="M198 198c6.6 6.6 6.6 17.4 0 24l-14 14c-6.6 6.6-17.4 6.6-24 0l-14-14c-6.6-6.6-6.6-17.4 0-24l14-14c6.6-6.6 17.4-6.6 24 0Z"/>
    <path d="M6 6c6.6 6.6 6.6 17.4 0 24L-8 44c-6.6 6.6-17.4 6.6-24 0l-14-14c-6.6-6.6-6.6-17.4 0-24l14-14c6.6-6.6 17.4-6.6 24 0Z"/>
  </g>
  <text x="256" y="440" text-anchor="middle" fill="#f59e0b" font-family="-apple-system, BlinkMacSystemFont, 'Segoe UI', Roboto, sans-serif" font-weight="900" font-size="44" letter-spacing="4">TORVEX</text>
</svg>
